<?xml version="1.0" encoding="UTF-8" standalone="no"?>
<!-- Generator: Adobe Illustrator 16.0.0, SVG Export Plug-In . SVG Version: 6.00 Build 0)  -->

<svg
   xmlns:dc="http://purl.org/dc/elements/1.1/"
   xmlns:cc="http://creativecommons.org/ns#"
   xmlns:rdf="http://www.w3.org/1999/02/22-rdf-syntax-ns#"
   xmlns:svg="http://www.w3.org/2000/svg"
   xmlns="http://www.w3.org/2000/svg"
   xmlns:sodipodi="http://sodipodi.sourceforge.net/DTD/sodipodi-0.dtd"
   xmlns:inkscape="http://www.inkscape.org/namespaces/inkscape"
   version="1.0"
   id="Layer_1"
   x="0px"
   y="0px"
   width="1904.026"
   height="584.05103"
   viewBox="0 0 1904.026 584.05103"
   enable-background="new 0 0 2000 2000"
   xml:space="preserve"
   inkscape:version="0.48.3.1 r9886"
   sodipodi:docname="vision.ai.svg"><metadata
   id="metadata87"><rdf:RDF><cc:Work
       rdf:about=""><dc:format>image/svg+xml</dc:format><dc:type
         rdf:resource="http://purl.org/dc/dcmitype/StillImage" /></cc:Work></rdf:RDF></metadata><defs
   id="defs85" /><sodipodi:namedview
   pagecolor="#ffffff"
   bordercolor="#666666"
   borderopacity="1"
   objecttolerance="10"
   gridtolerance="10"
   guidetolerance="10"
   inkscape:pageopacity="0"
   inkscape:pageshadow="2"
   inkscape:window-width="1364"
   inkscape:window-height="749"
   id="namedview83"
   showgrid="false"
   fit-margin-top="0"
   fit-margin-left="0"
   fit-margin-right="0"
   fit-margin-bottom="0"
   inkscape:zoom="0.3337544"
   inkscape:cx="1012.1342"
   inkscape:cy="52.11711"
   inkscape:window-x="0"
   inkscape:window-y="17"
   inkscape:window-maximized="0"
   inkscape:current-layer="Layer_1" />
<g
   id="g3"
   transform="translate(-51.719,-700.908)">
	<path
   d="m 102.738,1213.434 h 7.61 v 63.336 h 36.846 v 6.791 h -44.456 v -70.127 z"
   id="path5"
   inkscape:connector-curvature="0"
   style="fill:#606060" />
	<path
   d="m 159.904,1213.434 h 44.359 v 6.792 h -36.749 v 23.985 h 34.678 v 6.791 h -34.678 v 25.768 h 36.749 v 6.791 h -44.359 v -70.127 z"
   id="path7"
   inkscape:connector-curvature="0"
   style="fill:#606060" />
	<path
   d="m 217.264,1213.434 h 52.595 v 6.792 h -22.011 v 63.335 h -7.61 v -63.335 h -22.974 v -6.792 z"
   id="path9"
   inkscape:connector-curvature="0"
   style="fill:#606060" />
	<path
   d="m 314.884,1248.642 c 0,-3.242 0.305,-6.518 0.915,-9.825 0.609,-3.307 1.638,-6.614 3.083,-9.922 1.445,-3.307 3.21,-6.229 5.298,-8.766 2.087,-2.536 4.76,-4.6 8.02,-6.189 3.258,-1.589 6.863,-2.384 10.813,-2.384 3.885,0 7.417,0.739 10.596,2.216 3.179,1.477 5.844,3.491 7.995,6.044 2.151,2.553 3.917,5.322 5.298,8.309 1.38,2.986 2.44,6.213 3.179,9.681 0.771,3.726 1.156,7.338 1.156,10.837 0,3.211 -0.313,6.438 -0.939,9.681 -0.626,3.244 -1.662,6.486 -3.107,9.729 -1.445,3.243 -3.219,6.101 -5.322,8.573 -2.104,2.473 -4.785,4.479 -8.043,6.021 -3.259,1.541 -6.863,2.312 -10.813,2.312 -3.853,0 -7.369,-0.723 -10.548,-2.167 -3.179,-1.445 -5.844,-3.42 -7.995,-5.924 -2.151,-2.505 -3.918,-5.233 -5.298,-8.188 -1.381,-2.953 -2.44,-6.148 -3.179,-9.584 -0.74,-3.406 -1.109,-6.89 -1.109,-10.454 z m 48.357,0 c 0,-3.788 -0.37,-7.433 -1.108,-10.933 -0.578,-2.665 -1.357,-5.105 -2.336,-7.321 -0.98,-2.216 -2.224,-4.254 -3.732,-6.117 -1.51,-1.861 -3.372,-3.314 -5.587,-4.358 -2.215,-1.043 -4.704,-1.565 -7.465,-1.565 -2.986,0 -5.667,0.643 -8.043,1.927 -2.377,1.284 -4.303,2.946 -5.78,4.984 -1.478,2.04 -2.706,4.416 -3.685,7.129 -0.98,2.714 -1.662,5.411 -2.047,8.091 -0.385,2.682 -0.578,5.403 -0.578,8.164 0,3.564 0.353,7.064 1.06,10.5 0.545,2.633 1.308,5.033 2.288,7.2 0.979,2.168 2.223,4.159 3.733,5.973 1.509,1.814 3.379,3.235 5.611,4.263 2.231,1.027 4.712,1.541 7.441,1.541 2.986,0 5.667,-0.618 8.043,-1.854 2.376,-1.235 4.302,-2.833 5.78,-4.792 1.477,-1.958 2.713,-4.255 3.708,-6.888 0.995,-2.633 1.693,-5.266 2.095,-7.898 0.401,-2.635 0.602,-5.317 0.602,-8.046 z"
   id="path11"
   inkscape:connector-curvature="0"
   style="fill:#606060" />
	<path
   d="m 426.958,1213.434 h 7.754 v 39.062 c 0,10.179 -2.215,18.134 -6.646,23.865 -4.431,5.731 -10.596,8.597 -18.495,8.597 -6.293,0 -11.52,-1.854 -15.677,-5.563 -4.159,-3.709 -6.959,-8.966 -8.405,-15.773 -0.707,-3.307 -1.06,-7.016 -1.06,-11.126 v -39.062 h 7.803 v 39.062 c 0,3.66 0.305,6.871 0.915,9.633 1.124,5.33 3.162,9.328 6.117,11.992 2.954,2.666 6.389,3.998 10.307,3.998 2.408,0 4.64,-0.506 6.695,-1.518 2.055,-1.011 3.893,-2.528 5.515,-4.551 1.621,-2.023 2.89,-4.704 3.805,-8.044 0.915,-3.339 1.373,-7.176 1.373,-11.511 v -39.061 z"
   id="path13"
   inkscape:connector-curvature="0"
   style="fill:#606060" />
	<path
   d="m 487.929,1283.561 -20.662,-30.392 h -10.355 v 30.392 h -7.61 v -70.127 h 7.61 9.922 c 7.77,0 14.12,1.742 19.049,5.227 4.929,3.484 7.393,8.308 7.393,14.473 0,4.785 -1.589,8.943 -4.768,12.475 -3.179,3.532 -7.434,5.779 -12.764,6.743 l 20.903,31.21 h -8.718 z m -31.018,-37.279 h 9.922 c 3.018,0 5.667,-0.272 7.947,-0.819 2.279,-0.546 4.077,-1.244 5.394,-2.095 1.316,-0.851 2.376,-1.887 3.179,-3.106 0.802,-1.221 1.34,-2.392 1.613,-3.517 0.272,-1.123 0.409,-2.327 0.409,-3.612 0,-3.98 -1.493,-7.128 -4.479,-9.439 -2.986,-2.313 -7.675,-3.468 -14.064,-3.468 h -9.922 v 26.056 z"
   id="path15"
   inkscape:connector-curvature="0"
   style="fill:#606060" />
	<path
   d="m 583.286,1213.434 h 7.898 l -21.24,70.127 h -10.548 l -21.481,-70.127 h 8.188 l 18.543,62.035 18.64,-62.035 z"
   id="path17"
   inkscape:connector-curvature="0"
   style="fill:#606060" />
	<path
   d="m 605.389,1283.561 v -70.127 h 7.562 v 70.127 h -7.562 z"
   id="path19"
   inkscape:connector-curvature="0"
   style="fill:#606060" />
	<path
   d="m 625.469,1267.811 8.188,-1.492 c 0.674,2.793 2.521,5.459 5.539,7.995 3.018,2.536 6.374,3.805 10.066,3.805 4.527,0 8.404,-1.156 11.631,-3.468 3.227,-2.313 4.84,-5.298 4.84,-8.959 0,-1.315 -0.233,-2.584 -0.698,-3.805 -0.466,-1.22 -1.052,-2.295 -1.758,-3.227 -0.707,-0.932 -1.63,-1.854 -2.77,-2.77 -1.14,-0.915 -2.2,-1.686 -3.179,-2.313 -0.98,-0.626 -2.191,-1.276 -3.636,-1.95 -1.445,-0.674 -2.609,-1.196 -3.492,-1.565 -0.883,-0.368 -1.991,-0.811 -3.323,-1.324 -1.333,-0.514 -2.224,-0.867 -2.673,-1.06 -1.188,-0.481 -2.208,-0.923 -3.059,-1.325 -0.851,-0.4 -1.854,-0.931 -3.01,-1.589 -1.156,-0.658 -2.136,-1.316 -2.938,-1.975 -0.803,-0.658 -1.638,-1.477 -2.504,-2.456 -0.867,-0.979 -1.565,-2.007 -2.095,-3.083 -0.53,-1.075 -0.963,-2.336 -1.3,-3.781 -0.337,-1.444 -0.506,-2.985 -0.506,-4.623 0,-5.266 1.958,-9.465 5.876,-12.595 3.917,-3.131 8.782,-4.696 14.594,-4.696 5.522,0 10.227,1.365 14.112,4.094 3.885,2.729 6.485,6.197 7.803,10.403 l -7.321,1.204 c -0.739,-2.312 -2.456,-4.374 -5.153,-6.188 -2.697,-1.814 -5.844,-2.722 -9.44,-2.722 -3.693,0 -6.727,0.996 -9.103,2.986 -2.376,1.991 -3.564,4.496 -3.564,7.514 0,1.155 0.145,2.231 0.434,3.227 0.289,0.996 0.658,1.862 1.108,2.601 0.449,0.739 1.075,1.454 1.878,2.144 0.802,0.691 1.565,1.269 2.288,1.734 0.723,0.466 1.653,0.963 2.793,1.493 1.14,0.529 2.127,0.955 2.962,1.276 0.834,0.321 1.918,0.746 3.251,1.276 1.332,0.529 2.4,0.955 3.203,1.276 1.284,0.546 2.44,1.067 3.468,1.564 1.027,0.499 2.216,1.141 3.564,1.927 1.349,0.787 2.528,1.59 3.54,2.408 1.011,0.819 2.047,1.807 3.106,2.962 1.06,1.156 1.927,2.36 2.601,3.612 0.674,1.253 1.228,2.697 1.662,4.335 0.433,1.638 0.65,3.355 0.65,5.153 0,4.175 -1.1,7.73 -3.299,10.669 -2.2,2.938 -5.057,5.081 -8.573,6.43 -3.516,1.349 -7.506,2.022 -11.969,2.022 -6.133,0 -11.167,-1.572 -15.1,-4.72 -3.934,-3.144 -6.832,-7.287 -8.694,-12.424 z"
   id="path21"
   inkscape:connector-curvature="0"
   style="fill:#606060" />
	<path
   d="m 686.633,1283.561 v -70.127 h 7.562 v 70.127 h -7.562 z"
   id="path23"
   inkscape:connector-curvature="0"
   style="fill:#606060" />
	<path
   d="m 708.978,1248.642 c 0,-3.242 0.305,-6.518 0.915,-9.825 0.609,-3.307 1.638,-6.614 3.083,-9.922 1.445,-3.307 3.21,-6.229 5.298,-8.766 2.087,-2.536 4.76,-4.6 8.02,-6.189 3.258,-1.589 6.863,-2.384 10.813,-2.384 3.885,0 7.417,0.739 10.596,2.216 3.179,1.477 5.844,3.491 7.995,6.044 2.151,2.553 3.917,5.322 5.298,8.309 1.38,2.986 2.44,6.213 3.179,9.681 0.771,3.726 1.156,7.338 1.156,10.837 0,3.211 -0.313,6.438 -0.939,9.681 -0.626,3.244 -1.662,6.486 -3.107,9.729 -1.445,3.243 -3.219,6.101 -5.322,8.573 -2.104,2.473 -4.785,4.479 -8.043,6.021 -3.259,1.541 -6.863,2.312 -10.813,2.312 -3.853,0 -7.369,-0.723 -10.548,-2.167 -3.179,-1.445 -5.844,-3.42 -7.995,-5.924 -2.151,-2.505 -3.918,-5.233 -5.298,-8.188 -1.381,-2.953 -2.44,-6.148 -3.179,-9.584 -0.74,-3.406 -1.109,-6.89 -1.109,-10.454 z m 48.356,0 c 0,-3.788 -0.37,-7.433 -1.108,-10.933 -0.578,-2.665 -1.357,-5.105 -2.336,-7.321 -0.98,-2.216 -2.224,-4.254 -3.732,-6.117 -1.51,-1.861 -3.372,-3.314 -5.587,-4.358 -2.215,-1.043 -4.704,-1.565 -7.465,-1.565 -2.986,0 -5.667,0.643 -8.043,1.927 -2.377,1.284 -4.303,2.946 -5.78,4.984 -1.478,2.04 -2.706,4.416 -3.685,7.129 -0.98,2.714 -1.662,5.411 -2.047,8.091 -0.385,2.682 -0.578,5.403 -0.578,8.164 0,3.564 0.353,7.064 1.06,10.5 0.545,2.633 1.308,5.033 2.288,7.2 0.979,2.168 2.223,4.159 3.733,5.973 1.509,1.814 3.379,3.235 5.611,4.263 2.231,1.027 4.712,1.541 7.441,1.541 2.986,0 5.667,-0.618 8.043,-1.854 2.376,-1.235 4.302,-2.833 5.78,-4.792 1.477,-1.958 2.713,-4.255 3.708,-6.888 0.995,-2.633 1.693,-5.266 2.095,-7.898 0.401,-2.635 0.602,-5.317 0.602,-8.046 z"
   id="path25"
   inkscape:connector-curvature="0"
   style="fill:#606060" />
	<path
   d="m 778.522,1283.561 v -70.127 h 7.369 l 35.641,55.919 v -55.919 h 7.562 v 70.127 h -6.984 l -35.979,-57.314 v 57.314 h -7.609 z"
   id="path27"
   inkscape:connector-curvature="0"
   style="fill:#606060" />
	<path
   d="m 877.298,1213.434 h 44.359 v 6.792 h -36.749 v 23.985 h 34.678 v 6.791 h -34.678 v 25.768 h 36.749 v 6.791 h -44.359 v -70.127 z"
   id="path29"
   inkscape:connector-curvature="0"
   style="fill:#606060" />
	<path
   d="m 936.247,1283.561 v -70.127 h 10.355 l 22.107,60.061 22.156,-60.061 h 9.97 v 70.127 h -7.369 v -57.989 l -20.614,57.219 h -8.621 l -20.614,-57.219 v 57.989 h -7.37 z"
   id="path31"
   inkscape:connector-curvature="0"
   style="fill:#606060" />
	<path
   d="m 1015.425,1213.434 h 7.609 9.922 c 7.385,0 13.301,1.414 17.748,4.239 4.447,2.825 7.185,6.614 8.212,11.366 0.257,1.445 0.386,2.811 0.386,4.094 0,2.794 -0.53,5.379 -1.59,7.755 -1.06,2.376 -2.633,4.487 -4.72,6.333 -2.088,1.847 -4.841,3.3 -8.26,4.359 -3.42,1.06 -7.346,1.589 -11.776,1.589 h -9.922 v 30.392 h -7.609 v -70.127 z m 7.609,32.848 h 9.922 c 12.361,0 18.543,-4.384 18.543,-13.149 0,-1.123 -0.096,-2.087 -0.289,-2.89 -0.289,-1.316 -0.787,-2.528 -1.493,-3.637 -0.706,-1.107 -1.726,-2.167 -3.058,-3.179 -1.333,-1.011 -3.163,-1.798 -5.491,-2.359 -2.328,-0.561 -5.065,-0.843 -8.212,-0.843 h -9.922 v 26.057 z"
   id="path33"
   inkscape:connector-curvature="0"
   style="fill:#606060" />
	<path
   d="m 1070.905,1248.642 c 0,-3.242 0.306,-6.518 0.915,-9.825 0.61,-3.307 1.638,-6.614 3.083,-9.922 1.445,-3.307 3.21,-6.229 5.298,-8.766 2.087,-2.536 4.76,-4.6 8.02,-6.189 3.259,-1.589 6.863,-2.384 10.813,-2.384 3.885,0 7.417,0.739 10.596,2.216 3.18,1.477 5.844,3.491 7.996,6.044 2.15,2.553 3.917,5.322 5.298,8.309 1.38,2.986 2.439,6.213 3.179,9.681 0.771,3.726 1.156,7.338 1.156,10.837 0,3.211 -0.313,6.438 -0.939,9.681 -0.626,3.244 -1.662,6.486 -3.106,9.729 -1.445,3.243 -3.22,6.101 -5.322,8.573 -2.104,2.473 -4.785,4.479 -8.044,6.021 -3.259,1.542 -6.863,2.312 -10.813,2.312 -3.853,0 -7.369,-0.723 -10.548,-2.167 -3.179,-1.445 -5.845,-3.42 -7.995,-5.924 -2.151,-2.505 -3.918,-5.233 -5.298,-8.188 -1.381,-2.953 -2.44,-6.148 -3.179,-9.584 -0.741,-3.406 -1.11,-6.89 -1.11,-10.454 z m 48.357,0 c 0,-3.788 -0.369,-7.433 -1.107,-10.933 -0.578,-2.665 -1.356,-5.105 -2.336,-7.321 -0.98,-2.216 -2.224,-4.254 -3.732,-6.117 -1.51,-1.861 -3.372,-3.314 -5.587,-4.358 -2.216,-1.043 -4.704,-1.565 -7.466,-1.565 -2.986,0 -5.667,0.643 -8.043,1.927 -2.377,1.284 -4.304,2.946 -5.78,4.984 -1.477,2.04 -2.705,4.416 -3.685,7.129 -0.979,2.714 -1.661,5.411 -2.047,8.091 -0.385,2.682 -0.578,5.403 -0.578,8.164 0,3.564 0.354,7.064 1.061,10.5 0.545,2.633 1.308,5.033 2.287,7.2 0.979,2.168 2.224,4.159 3.732,5.973 1.51,1.814 3.38,3.235 5.611,4.263 2.231,1.028 4.712,1.541 7.441,1.541 2.986,0 5.667,-0.618 8.044,-1.854 2.375,-1.235 4.302,-2.833 5.779,-4.792 1.477,-1.958 2.713,-4.255 3.709,-6.888 0.994,-2.633 1.692,-5.266 2.095,-7.898 0.402,-2.635 0.602,-5.317 0.602,-8.046 z"
   id="path35"
   inkscape:connector-curvature="0"
   style="fill:#606060" />
	<path
   d="m 1138.669,1213.434 h 7.706 l 8.862,61.361 13.196,-59.579 h 9.393 l 13.196,59.579 8.911,-61.361 h 7.706 l -11.078,70.127 h -10.548 l -12.812,-59.193 -12.812,59.193 H 1149.6 l -10.931,-70.127 z"
   id="path37"
   inkscape:connector-curvature="0"
   style="fill:#606060" />
	<path
   d="m 1220.303,1213.434 h 44.358 v 6.792 h -36.749 v 23.985 h 34.678 v 6.791 h -34.678 v 25.768 h 36.749 v 6.791 h -44.358 v -70.127 z"
   id="path39"
   inkscape:connector-curvature="0"
   style="fill:#606060" />
	<path
   d="m 1319.853,1283.561 -20.662,-30.392 h -10.355 v 30.392 h -7.609 v -70.127 h 7.609 9.922 c 7.771,0 14.119,1.742 19.049,5.227 4.929,3.484 7.394,8.308 7.394,14.473 0,4.785 -1.59,8.943 -4.769,12.475 -3.179,3.532 -7.434,5.779 -12.764,6.743 l 20.903,31.21 h -8.718 z m -31.018,-37.279 h 9.922 c 3.018,0 5.667,-0.272 7.947,-0.819 2.279,-0.546 4.077,-1.244 5.395,-2.095 1.315,-0.851 2.375,-1.887 3.179,-3.106 0.802,-1.221 1.34,-2.392 1.613,-3.517 0.272,-1.123 0.409,-2.327 0.409,-3.612 0,-3.98 -1.493,-7.128 -4.479,-9.439 -2.985,-2.313 -7.674,-3.468 -14.063,-3.468 h -9.922 v 26.056 z"
   id="path41"
   inkscape:connector-curvature="0"
   style="fill:#606060" />
	<path
   d="m 1369.646,1213.434 h 8.092 l 17.146,28.898 17.146,-28.898 h 8.091 l -21.48,34.101 v 36.026 h -7.61 v -36.026 l -21.385,-34.101 z"
   id="path43"
   inkscape:connector-curvature="0"
   style="fill:#606060" />
	<path
   d="m 1431.147,1248.642 c 0,-3.242 0.306,-6.518 0.915,-9.825 0.61,-3.307 1.638,-6.614 3.083,-9.922 1.445,-3.307 3.21,-6.229 5.298,-8.766 2.087,-2.536 4.76,-4.6 8.02,-6.189 3.259,-1.589 6.863,-2.384 10.813,-2.384 3.885,0 7.417,0.739 10.596,2.216 3.18,1.477 5.844,3.491 7.996,6.044 2.15,2.553 3.917,5.322 5.298,8.309 1.38,2.986 2.439,6.213 3.179,9.681 0.771,3.726 1.156,7.338 1.156,10.837 0,3.211 -0.313,6.438 -0.939,9.681 -0.626,3.244 -1.662,6.486 -3.106,9.729 -1.445,3.243 -3.22,6.101 -5.322,8.573 -2.104,2.473 -4.785,4.479 -8.044,6.021 -3.259,1.542 -6.863,2.312 -10.813,2.312 -3.853,0 -7.369,-0.723 -10.548,-2.167 -3.179,-1.445 -5.845,-3.42 -7.995,-5.924 -2.151,-2.505 -3.918,-5.233 -5.298,-8.188 -1.381,-2.953 -2.44,-6.148 -3.179,-9.584 -0.74,-3.406 -1.11,-6.89 -1.11,-10.454 z m 48.357,0 c 0,-3.788 -0.369,-7.433 -1.107,-10.933 -0.578,-2.665 -1.356,-5.105 -2.336,-7.321 -0.98,-2.216 -2.224,-4.254 -3.732,-6.117 -1.51,-1.861 -3.372,-3.314 -5.587,-4.358 -2.216,-1.043 -4.704,-1.565 -7.466,-1.565 -2.986,0 -5.667,0.643 -8.043,1.927 -2.377,1.284 -4.304,2.946 -5.78,4.984 -1.477,2.04 -2.705,4.416 -3.685,7.129 -0.979,2.714 -1.661,5.411 -2.047,8.091 -0.385,2.682 -0.578,5.403 -0.578,8.164 0,3.564 0.354,7.064 1.061,10.5 0.545,2.633 1.308,5.033 2.287,7.2 0.979,2.168 2.224,4.159 3.732,5.973 1.51,1.814 3.38,3.235 5.611,4.263 2.231,1.028 4.712,1.541 7.441,1.541 2.986,0 5.667,-0.618 8.044,-1.854 2.375,-1.235 4.302,-2.833 5.779,-4.792 1.477,-1.958 2.713,-4.255 3.709,-6.888 0.994,-2.633 1.692,-5.266 2.095,-7.898 0.402,-2.635 0.602,-5.317 0.602,-8.046 z"
   id="path45"
   inkscape:connector-curvature="0"
   style="fill:#606060" />
	<path
   d="m 1543.222,1213.434 h 7.755 v 39.062 c 0,10.179 -2.216,18.134 -6.647,23.865 -4.431,5.731 -10.596,8.597 -18.494,8.597 -6.294,0 -11.52,-1.854 -15.678,-5.563 -4.158,-3.709 -6.96,-8.966 -8.404,-15.773 -0.707,-3.307 -1.06,-7.016 -1.06,-11.126 v -39.062 h 7.802 v 39.062 c 0,3.66 0.306,6.871 0.916,9.633 1.123,5.33 3.162,9.328 6.116,11.992 2.954,2.666 6.39,3.998 10.308,3.998 2.408,0 4.639,-0.506 6.694,-1.518 2.055,-1.011 3.893,-2.528 5.515,-4.551 1.621,-2.023 2.89,-4.704 3.805,-8.044 0.915,-3.339 1.373,-7.176 1.373,-11.511 v -39.061 z"
   id="path47"
   inkscape:connector-curvature="0"
   style="fill:#606060" />
	<path
   d="m 1604.192,1283.561 -20.662,-30.392 h -10.355 v 30.392 h -7.609 v -70.127 h 7.609 9.922 c 7.771,0 14.119,1.742 19.049,5.227 4.929,3.484 7.394,8.308 7.394,14.473 0,4.785 -1.59,8.943 -4.769,12.475 -3.179,3.532 -7.434,5.779 -12.764,6.743 l 20.903,31.21 h -8.718 z m -31.017,-37.279 h 9.922 c 3.018,0 5.667,-0.272 7.947,-0.819 2.279,-0.546 4.077,-1.244 5.395,-2.095 1.315,-0.851 2.375,-1.887 3.179,-3.106 0.802,-1.221 1.34,-2.392 1.613,-3.517 0.272,-1.123 0.409,-2.327 0.409,-3.612 0,-3.98 -1.493,-7.128 -4.479,-9.439 -2.985,-2.313 -7.674,-3.468 -14.063,-3.468 h -9.922 v 26.056 z"
   id="path49"
   inkscape:connector-curvature="0"
   style="fill:#606060" />
	<path
   d="m 1699.55,1213.434 h 7.898 l -21.24,70.127 h -10.548 l -21.48,-70.127 h 8.188 l 18.543,62.035 18.639,-62.035 z"
   id="path51"
   inkscape:connector-curvature="0"
   style="fill:#606060" />
	<path
   d="m 1721.652,1283.561 v -70.127 h 7.562 v 70.127 h -7.562 z"
   id="path53"
   inkscape:connector-curvature="0"
   style="fill:#606060" />
	<path
   d="m 1741.733,1267.811 8.188,-1.492 c 0.674,2.793 2.521,5.459 5.539,7.995 3.018,2.536 6.373,3.805 10.065,3.805 4.527,0 8.405,-1.156 11.632,-3.468 3.227,-2.313 4.841,-5.298 4.841,-8.959 0,-1.315 -0.233,-2.584 -0.698,-3.805 -0.466,-1.22 -1.053,-2.295 -1.759,-3.227 -0.706,-0.932 -1.63,-1.854 -2.769,-2.77 -1.141,-0.915 -2.2,-1.686 -3.18,-2.313 -0.979,-0.626 -2.191,-1.276 -3.636,-1.95 -1.445,-0.674 -2.609,-1.196 -3.492,-1.565 -0.884,-0.368 -1.991,-0.811 -3.323,-1.324 -1.333,-0.514 -2.224,-0.867 -2.673,-1.06 -1.188,-0.481 -2.208,-0.923 -3.059,-1.325 -0.852,-0.4 -1.854,-0.931 -3.011,-1.589 -1.155,-0.658 -2.136,-1.316 -2.938,-1.975 -0.803,-0.658 -1.638,-1.477 -2.505,-2.456 -0.866,-0.979 -1.565,-2.007 -2.095,-3.083 -0.53,-1.075 -0.963,-2.336 -1.301,-3.781 -0.337,-1.444 -0.506,-2.985 -0.506,-4.623 0,-5.266 1.959,-9.465 5.876,-12.595 3.918,-3.131 8.782,-4.696 14.594,-4.696 5.522,0 10.227,1.365 14.112,4.094 3.885,2.729 6.485,6.197 7.803,10.403 l -7.321,1.204 c -0.739,-2.312 -2.456,-4.374 -5.153,-6.188 -2.697,-1.814 -5.845,-2.722 -9.44,-2.722 -3.692,0 -6.727,0.996 -9.103,2.986 -2.377,1.991 -3.564,4.496 -3.564,7.514 0,1.155 0.145,2.231 0.434,3.227 0.289,0.996 0.658,1.862 1.107,2.601 0.45,0.739 1.076,1.454 1.879,2.144 0.802,0.691 1.565,1.269 2.288,1.734 0.722,0.466 1.653,0.963 2.793,1.493 1.14,0.529 2.127,0.955 2.962,1.276 0.835,0.321 1.919,0.746 3.251,1.276 1.332,0.529 2.4,0.955 3.203,1.276 1.284,0.546 2.44,1.067 3.468,1.564 1.027,0.499 2.216,1.141 3.564,1.927 1.349,0.787 2.528,1.59 3.54,2.408 1.012,0.819 2.047,1.807 3.106,2.962 1.06,1.156 1.927,2.36 2.601,3.612 0.675,1.253 1.229,2.697 1.662,4.335 0.433,1.638 0.65,3.355 0.65,5.153 0,4.175 -1.101,7.73 -3.3,10.669 -2.199,2.938 -5.057,5.081 -8.573,6.43 -3.516,1.349 -7.506,2.022 -11.969,2.022 -6.133,0 -11.166,-1.572 -15.099,-4.72 -3.93,-3.144 -6.828,-7.287 -8.691,-12.424 z"
   id="path55"
   inkscape:connector-curvature="0"
   style="fill:#606060" />
	<path
   d="m 1802.897,1283.561 v -70.127 h 7.562 v 70.127 h -7.562 z"
   id="path57"
   inkscape:connector-curvature="0"
   style="fill:#606060" />
	<path
   d="m 1825.241,1248.642 c 0,-3.242 0.306,-6.518 0.915,-9.825 0.61,-3.307 1.638,-6.614 3.083,-9.922 1.445,-3.307 3.21,-6.229 5.298,-8.766 2.087,-2.536 4.76,-4.6 8.02,-6.189 3.259,-1.589 6.863,-2.384 10.813,-2.384 3.885,0 7.417,0.739 10.596,2.216 3.18,1.477 5.844,3.491 7.996,6.044 2.15,2.553 3.917,5.322 5.298,8.309 1.38,2.986 2.439,6.213 3.179,9.681 0.771,3.726 1.156,7.338 1.156,10.837 0,3.211 -0.313,6.438 -0.939,9.681 -0.626,3.244 -1.662,6.486 -3.106,9.729 -1.445,3.243 -3.22,6.101 -5.322,8.573 -2.104,2.473 -4.785,4.479 -8.044,6.021 -3.259,1.542 -6.863,2.312 -10.813,2.312 -3.853,0 -7.369,-0.723 -10.548,-2.167 -3.179,-1.445 -5.845,-3.42 -7.995,-5.924 -2.151,-2.505 -3.918,-5.233 -5.298,-8.188 -1.381,-2.953 -2.44,-6.148 -3.179,-9.584 -0.741,-3.406 -1.11,-6.89 -1.11,-10.454 z m 48.357,0 c 0,-3.788 -0.369,-7.433 -1.107,-10.933 -0.578,-2.665 -1.356,-5.105 -2.336,-7.321 -0.98,-2.216 -2.224,-4.254 -3.732,-6.117 -1.51,-1.861 -3.372,-3.314 -5.587,-4.358 -2.216,-1.043 -4.704,-1.565 -7.466,-1.565 -2.986,0 -5.667,0.643 -8.043,1.927 -2.377,1.284 -4.304,2.946 -5.78,4.984 -1.477,2.04 -2.705,4.416 -3.685,7.129 -0.979,2.714 -1.661,5.411 -2.047,8.091 -0.385,2.682 -0.578,5.403 -0.578,8.164 0,3.564 0.354,7.064 1.061,10.5 0.545,2.633 1.308,5.033 2.287,7.2 0.979,2.168 2.224,4.159 3.732,5.973 1.51,1.814 3.38,3.235 5.611,4.263 2.231,1.028 4.712,1.541 7.441,1.541 2.986,0 5.667,-0.618 8.044,-1.854 2.375,-1.235 4.302,-2.833 5.779,-4.792 1.477,-1.958 2.713,-4.255 3.709,-6.888 0.994,-2.633 1.692,-5.266 2.095,-7.898 0.401,-2.635 0.602,-5.317 0.602,-8.046 z"
   id="path59"
   inkscape:connector-curvature="0"
   style="fill:#606060" />
	<path
   d="m 1894.787,1283.561 v -70.127 h 7.369 l 35.641,55.919 v -55.919 h 7.562 v 70.127 h -6.983 l -35.979,-57.314 v 57.314 h -7.61 z"
   id="path61"
   inkscape:connector-curvature="0"
   style="fill:#606060" />
</g>
<g
   id="g63"
   transform="translate(-51.719,-700.908)">
	<path
   d="m 51.719,826.125 h 73.175 l 70.727,201.792 71.303,-201.792 h 73.752 l -96.319,270.361 c -7.983,22.011 -24.13,33.013 -48.43,33.013 -23.946,0 -39.914,-11.002 -47.89,-33.013 L 51.719,826.125 z"
   id="path65"
   inkscape:connector-curvature="0"
   style="fill:#183a49" />
	<path
   d="m 350.465,749.857 c -0.73,-13.662 3.352,-25.232 12.245,-34.721 8.885,-9.48 19.861,-14.228 32.922,-14.228 12.33,0 22.94,4.649 31.836,13.945 8.885,9.301 13.33,20.402 13.33,33.295 0,13.287 -4.445,24.476 -13.33,33.582 -8.896,9.108 -19.685,13.661 -32.381,13.661 -12.338,0 -22.676,-4.357 -31.018,-13.092 -8.348,-8.723 -12.881,-19.537 -13.604,-32.442 z m 9.25,375.088 v -298.82 h 72.377 v 298.82 h -72.377 z"
   id="path67"
   inkscape:connector-curvature="0"
   style="fill:#183a49" />
	<path
   d="m 478.343,1124.945 v -76.269 h 129.453 c 8.009,-1.495 12.747,-5.418 14.208,-11.767 0.357,-0.748 0.544,-1.684 0.544,-2.802 v -6.154 c 0,-7.845 -4.003,-12.7 -12.013,-14.567 h -62.827 c -10.926,0 -21.309,-2.848 -31.137,-8.539 -24.402,-14.416 -36.596,-32.817 -36.596,-55.211 v -55.778 c 0,-5.31 0.723,-11.189 2.167,-17.646 7.576,-33.386 30.134,-50.087 67.676,-50.087 h 145.106 l 1.633,76.272 H 564.868 c -1.457,0.374 -3.267,1.118 -5.442,2.241 -5.442,5.601 -8.163,9.516 -8.163,11.758 v 6.722 c 0,7.469 5.754,12.128 17.286,13.999 h 64.264 c 16.206,0 30.695,6.827 43.483,20.489 12.777,13.659 18.985,29.03 18.627,46.105 v 54.64 c -0.365,12.148 -3.722,23.816 -10.065,35.004 -6.354,11.196 -14.421,19.45 -24.218,24.758 -8.349,4.554 -19.41,6.832 -33.194,6.832 H 478.343 z"
   id="path69"
   inkscape:connector-curvature="0"
   style="fill:#183a49" />
	<path
   d="m 733.554,749.857 c -0.73,-13.662 3.352,-25.232 12.245,-34.721 8.885,-9.48 19.861,-14.228 32.922,-14.228 12.329,0 22.94,4.649 31.836,13.945 8.884,9.301 13.329,20.402 13.329,33.295 0,13.287 -4.445,24.476 -13.329,33.582 -8.896,9.108 -19.685,13.661 -32.381,13.661 -12.337,0 -22.676,-4.357 -31.017,-13.092 -8.349,-8.723 -12.883,-19.537 -13.605,-32.442 z m 9.251,375.088 v -298.82 h 72.375 v 298.82 h -72.375 z"
   id="path71"
   inkscape:connector-curvature="0"
   style="fill:#183a49" />
	<path
   d="M 865.236,1057.782 V 893.29 c 0,-3.415 0.545,-7.967 1.636,-13.659 6.888,-35.665 30.286,-53.505 70.197,-53.505 h 97.406 c 21.402,0 38.722,5.692 51.97,17.076 13.238,11.384 19.863,28.085 19.863,50.088 v 164.493 c 0,22.011 -6.625,38.704 -19.863,50.088 -13.248,11.384 -30.567,17.075 -51.97,17.075 h -97.406 c -42.446,0 -65.846,-17.832 -70.197,-53.501 l -1.636,-13.663 z m 88.608,-9.105 h 63.857 c 3.96,0 7.66,-2.349 11.086,-7.063 3.428,-4.703 5.146,-9.318 5.146,-13.838 V 922.729 c 0,-4.137 -1.718,-8.557 -5.146,-13.271 -3.426,-4.703 -7.126,-7.06 -11.086,-7.06 h -63.857 c -4.326,0 -8.111,2.258 -11.357,6.777 -3.25,4.516 -4.874,9.035 -4.874,13.554 v 105.616 c 0,4.518 1.624,9.036 4.874,13.556 3.245,4.515 7.031,6.776 11.357,6.776 z"
   id="path73"
   inkscape:connector-curvature="0"
   style="fill:#183a49" />
	<path
   d="m 1156.368,1124.945 v -227.67 c 0,-3.792 0.355,-8.343 1.089,-13.662 5.441,-38.321 27.752,-57.488 66.935,-57.488 h 100.671 c 39.18,0 61.49,19.167 66.934,57.488 0.723,5.319 1.087,9.871 1.087,13.662 v 227.67 h -72.372 V 923.402 c 0,-1.885 -0.188,-3.406 -0.546,-4.544 -1.454,-10.973 -9.251,-16.46 -23.399,-16.46 h -44.623 c -14.148,0 -21.954,5.487 -23.399,16.46 v 206.087 h -72.377 z"
   id="path75"
   inkscape:connector-curvature="0"
   style="fill:#183a49" />
	<path
   d="m 1586.25,1057.213 v -60.902 c 0,-22.385 6.231,-39.743 18.715,-52.08 12.475,-12.327 29.377,-18.497 50.71,-18.497 h 96.55 v -15.94 c -0.365,-6.445 -5.477,-10.431 -15.338,-11.95 H 1586.25 v -71.719 h 165.975 c 2.159,0 6.301,0.382 12.42,1.139 33.843,4.179 53.469,22.767 58.873,55.779 0.715,4.554 1.083,8.921 1.083,13.093 v 158.798 c 0,5.321 -0.368,9.874 -1.091,13.662 -3.264,17.075 -10.703,30.737 -22.311,40.98 -11.614,10.245 -25.576,15.368 -41.9,15.368 h -99.586 c -42.086,0 -66.211,-18.02 -72.373,-54.07 0.356,-2.652 0,-7.204 -1.09,-13.661 z m 75.914,-12.876 c 2.354,3.255 6.067,5.458 11.154,6.606 1.088,0.391 2.354,0.578 3.81,0.578 h 56.593 c 12.33,0 18.504,-5.692 18.504,-17.075 v -21.06 c 0,-7.205 -3.089,-12.328 -9.25,-15.367 -1.456,-1.513 -4.721,-2.278 -9.797,-2.278 h -63.668 c -6.173,1.156 -9.797,6.137 -10.885,14.95 v 23.576 c 0,3.452 1.173,6.813 3.539,10.07 z"
   id="path77"
   inkscape:connector-curvature="0"
   style="fill:#183a49" />
	<path
   d="m 1865.412,749.857 c -0.731,-13.662 3.353,-25.232 12.246,-34.721 8.885,-9.48 19.859,-14.228 32.92,-14.228 12.33,0 22.94,4.649 31.837,13.945 8.885,9.301 13.33,20.402 13.33,33.295 0,13.287 -4.445,24.476 -13.33,33.582 -8.896,9.108 -19.686,13.661 -32.38,13.661 -12.339,0 -22.677,-4.357 -31.019,-13.092 -8.348,-8.723 -12.881,-19.537 -13.604,-32.442 z m 9.25,375.088 v -298.82 h 72.377 v 298.82 h -72.377 z"
   id="path79"
   inkscape:connector-curvature="0"
   style="fill:#183a49" />
</g>
<path
   d="m 1501.838,336.826 c -1.694,-2.176 -24.33,-8.338 -66.31,-6.643 -41.978,1.691 -56.892,6.748 -58.924,7.762 -2.032,1.018 -4.072,2.021 -3.058,5.408 1.015,3.384 2.92,9.336 3.936,11.708 1.017,2.367 3.422,5.286 7.693,4.504 7.64,-1.398 23.911,-5.407 28.699,-6.377 7.751,-1.572 27.668,-3.446 36.541,-2.792 17.142,1.262 27.901,7.974 27.901,7.974 0,0 -14.019,-4.52 -25.376,-4.386 -1.978,0.022 -32.024,-0.929 -48.1,7.84 -5.945,3.24 -13.78,9.137 -13.543,14.084 0.182,3.753 3.84,12.357 7.892,16.758 2.782,3.023 8.876,9.578 12.263,11.947 3.385,2.37 9.32,7.246 17.527,9.729 9.26,2.798 16.999,3.135 23.093,-2.278 2.812,-2.499 13.223,-13.302 9.038,-13.768 -3.511,-0.473 -4.751,0.105 -12.621,0.135 -16.262,0.062 -25.629,-8.372 -25.629,-8.372 18.934,8.023 42.504,6.037 49.807,-2.656 3.15,-3.751 18.421,-23.984 20.367,-26.459 3.727,-4.739 6.701,-10.606 8.548,-14.219 3.639,-7.108 0.256,-9.899 0.256,-9.899 z m -61.122,51.04 c -7.484,0 -13.554,-6.069 -13.554,-13.554 0,-7.482 6.069,-13.551 13.554,-13.551 7.485,0 13.554,6.068 13.554,13.551 -10e-4,7.485 -6.069,13.554 -13.554,13.554 z"
   id="path81"
   inkscape:connector-curvature="0"
   style="fill:#35698c" />
</svg>